<?xml version="1.0" ?>
<svg height="64px" id="svg40759" width="64px" xmlns="http://www.w3.org/2000/svg" xmlns:cc="http://web.resource.org/cc/" xmlns:dc="http://purl.org/dc/elements/1.1/" xmlns:inkscape="http://www.inkscape.org/namespaces/inkscape" xmlns:rdf="http://www.w3.org/1999/02/22-rdf-syntax-ns#" xmlns:sodipodi="http://sodipodi.sourceforge.net/DTD/sodipodi-0.dtd" xmlns:svg="http://www.w3.org/2000/svg"><defs id="defs40761"/><g id="layer1"><g id="g40751" transform="matrix(1.7484541,0,0,1.7411865,-490.73425,-380.84748)"><rect height="28.747679" id="rect2178" rx="3.809685" ry="3.5800831" style="fill:#7a8fb9;fill-opacity:1;fill-rule:nonzero;stroke:#3b5998;stroke-width:1;stroke-linecap:round;stroke-linejoin:round;stroke-miterlimit:4;stroke-dasharray:none;stroke-dashoffset:0;stroke-opacity:1" transform="scale(-1,1)" width="35.603764" x="-316.77127" y="219.22871"/><g id="g35854" transform="translate(46.469389,2.1025484)"><path d="M 249.29189,239.70812 L 265.70811,239.70812 L 265.70811,237.3831 C 265.70811,235.64302 258.87563,236.78841 260.75717,229.82679 C 263.11213,221.11325 252.51779,221.11393 254.87263,229.82679 C 256.75577,236.79453 249.29189,235.61582 249.29189,237.3831 L 249.29189,239.70812 z " id="path34883" style="fill:#d6ddea;fill-opacity:1;fill-rule:evenodd;stroke:#6e85b5;stroke-width:0.58377004px;stroke-linecap:butt;stroke-linejoin:miter;stroke-opacity:1"/>
<path d="M 239.29189,239.70812 L 255.70811,239.70812 L 255.70811,237.3831 C 255.70811,235.64302 248.87563,236.78841 250.75717,229.82679 C 253.11213,221.11325 242.51779,221.11393 244.87263,229.82679 C 246.75577,236.79453 239.29189,235.61582 239.29189,237.3831 L 239.29189,239.70812 z " id="path34668" style="fill:#ffffff;fill-opacity:1;fill-rule:evenodd;stroke:#7388b3;stroke-width:0.58377004px;stroke-linecap:butt;stroke-linejoin:miter;stroke-opacity:1"/>
</g>
<path d="M 309.01958,248.11423 L 309.01958,254.98526 L 299.17288,248.11423 L 309.01958,248.11423 z " id="path3152" style="fill:#3b5998;fill-opacity:1;fill-rule:evenodd;stroke:#3b5998;stroke-width:1;stroke-linecap:butt;stroke-linejoin:round;stroke-miterlimit:4;stroke-dasharray:none;stroke-opacity:1"/>
<path d="M 306.63124,243.4876 L 306.63124,250.35863 L 296.78454,243.4876 L 306.63124,243.4876 z " id="path5096" style="fill:#7a8fb9;fill-opacity:1;fill-rule:evenodd;stroke:#7a8fb9;stroke-width:2.45743394;stroke-linecap:butt;stroke-linejoin:miter;stroke-miterlimit:4;stroke-dasharray:none;stroke-opacity:1"/>
</g>
</g>
</svg>