<?xml version="1.0" ?><!DOCTYPE svg  PUBLIC '-//W3C//DTD SVG 1.1//EN'  'http://www.w3.org/Graphics/SVG/1.1/DTD/svg11.dtd'><svg enable-background="new 0 0 512 512" height="512px" id="Layer_1" version="1.1" viewBox="0 0 512 512" width="512px" xml:space="preserve" xmlns="http://www.w3.org/2000/svg" xmlns:xlink="http://www.w3.org/1999/xlink"><path d="M492.275,442.732c0,34.171-27.702,61.872-61.873,61.872H80.659c-34.171,0-61.875-27.701-61.875-61.872  V92.987c0-34.171,27.704-61.873,61.875-61.873h349.743c34.171,0,61.873,27.701,61.873,61.873V442.732z" fill="#4F3072"/><path d="M492.275,417.988c0,34.172-27.702,61.873-61.873,61.873H80.659c-34.171,0-61.875-27.701-61.875-61.873  V68.243c0-34.171,27.704-61.872,61.875-61.872h349.743c34.171,0,61.873,27.701,61.873,61.872V417.988z" fill="#7B519D"/><g><path d="M254.901,117.961C253.593,117.012,255.185,118.343,254.901,117.961L254.901,117.961z" fill="#603C83"/><path d="M492.275,402.301V284.509c-3.164-3.155-6.326-6.31-9.478-9.478c-16.624-16.709-33.375-33.291-50-50   c-16.624-16.708-33.375-33.291-50-50c-8.313-8.354-16.688-16.646-25-25c-7.786-7.825-15.548-15.516-24.582-21.921   c-17.476-12.39-38.068-20.456-59.48-22.198c-1.766-0.144-3.707-0.454-5.472-0.267c-0.971,0.103-1.956,0.049-2.929-0.011   c-2.167-0.134-4.376-0.385-6.534-0.022c-2.177,0.365-4.025,1.509-4.973,3.556c-1.245,2.689-1.598,6.854,1.073,8.793   c0.667,0.898,1.602,1.622,2.364,2.437c0.799,0.854,1.688,1.876,2.636,2.563c0.668,0.898,1.602,1.622,2.364,2.437   c0.799,0.854,1.688,1.876,2.636,2.563c0.668,0.898,1.602,1.622,2.364,2.437c0.799,0.854,1.688,1.876,2.636,2.563   c0.705,0.948,1.706,1.827,2.563,2.638c0.804,0.759,1.812,1.554,2.482,2.427c-3.008-0.458-6.819-0.99-9.352,1.133   c-2.67,2.239-3.552,7.582-1.46,10.433c0.547,0.745,1.334,1.512,2.053,2.077c0.745,0.981,1.801,1.961,2.727,2.773   c0.969,0.851,1.825,1.85,2.74,2.759c0.916,0.909,1.906,1.775,2.758,2.743c0.821,0.933,1.797,1.959,2.775,2.726   c0.745,0.981,1.801,1.961,2.727,2.773c2.009,1.763,3.837,3.819,5.71,5.727c-4.085-0.259-9.634-0.109-11.761,4.069   c-0.983,1.933-1.574,4.627-0.5,6.643c0.429,0.805,35.197,35.377,35.558,35.813c0.436,0.527,0.677,0.899,0.978,1.523   c0.623,1.291,1.569,2.247,2.567,3.247C314.536,224.539,480.529,390.599,492.275,402.301z" fill="#603C83"/></g><path d="M491.936,424.469c0,0-304.297-304.037-304.628-304.363c-4.759-4.826-9.075-8.304-12.257-9.474  c-5.664-2.084-11.304-1.949-17.066-0.012c-32.095,10.793-45.388,37.188-32.657,68.441c19.072,46.824,45.428,86.498,78.588,119.418  l181.384,181.383h45.104C462.385,479.861,488.696,455.594,491.936,424.469z" fill="#603C83"/><g><path clip-rule="evenodd" d="M369.75,304.701c-8.397-6.76-17.371-12.828-26.204-19.027   c-17.617-12.373-33.73-13.334-46.876,6.572c-7.382,11.176-17.716,11.665-28.521,6.762c-29.789-13.506-52.791-34.318-66.265-64.595   c-5.96-13.395-5.882-25.405,8.064-34.879c7.383-5.01,14.822-10.939,14.227-21.887c-0.777-14.275-35.437-61.981-49.124-67.016   c-5.664-2.084-11.304-1.949-17.066-0.012c-32.095,10.793-45.388,37.188-32.657,68.441c37.98,93.242,104.82,158.154,196.828,197.773   c5.245,2.256,11.073,3.158,14.024,3.967c20.947,0.211,45.486-19.971,52.573-40C395.576,321.531,381.156,313.882,369.75,304.701z" fill="#FFFFFF" fill-rule="evenodd"/><path clip-rule="evenodd" d="M266.586,120.19c67.264,10.344,98.285,42.328,106.851,110.076   c0.794,6.258-1.537,15.674,7.391,15.848c9.331,0.178,7.083-9.099,7.161-15.363c0.789-63.806-54.846-122.957-119.458-125.138   c-4.875,0.701-14.962-3.362-15.591,7.564C252.521,120.544,261.013,119.333,266.586,120.19z" fill="#FFFFFF" fill-rule="evenodd"/><path clip-rule="evenodd" d="M279.743,138.766c-6.47-0.779-15.011-3.828-16.523,5.15   c-1.578,9.422,7.941,8.465,14.058,9.834c41.544,9.285,56.009,24.406,62.849,65.615c0.999,6.008-0.986,15.359,9.224,13.809   c7.567-1.152,4.834-9.168,5.467-13.85C355.153,179.761,321.251,143.75,279.743,138.766z" fill="#FFFFFF" fill-rule="evenodd"/><path clip-rule="evenodd" d="M283.558,171.118c-4.319,0.107-8.558,0.574-10.145,5.189   c-2.384,6.898,2.631,8.543,7.736,9.363c17.042,2.736,26.011,12.785,27.713,29.779c0.46,4.613,3.387,8.35,7.843,7.824   c6.174-0.736,6.732-6.232,6.543-11.451C323.553,192.729,301.973,170.661,283.558,171.118z" fill="#FFFFFF" fill-rule="evenodd"/></g></svg>