<?xml version="1.0" ?><!DOCTYPE svg  PUBLIC '-//W3C//DTD SVG 1.1//EN'  'http://www.w3.org/Graphics/SVG/1.1/DTD/svg11.dtd'><svg enable-background="new 0 0 32 32" height="32px" id="Layer_1" version="1.1" viewBox="0 0 32 32" width="32px" xml:space="preserve" xmlns="http://www.w3.org/2000/svg" xmlns:xlink="http://www.w3.org/1999/xlink"><g><polyline fill="none" points="   649,137.999 675,137.999 675,155.999 661,155.999  " stroke="#FFFFFF" stroke-linecap="round" stroke-linejoin="round" stroke-miterlimit="10" stroke-width="2"/><polyline fill="none" points="   653,155.999 649,155.999 649,141.999  " stroke="#FFFFFF" stroke-linecap="round" stroke-linejoin="round" stroke-miterlimit="10" stroke-width="2"/><polyline fill="none" points="   661,156 653,162 653,156  " stroke="#FFFFFF" stroke-linecap="round" stroke-linejoin="round" stroke-miterlimit="10" stroke-width="2"/></g><g><g><path d="M14.626,18.4c-0.256,0-0.512-0.098-0.707-0.293l-4.171-4.17c-0.188-0.188-0.293-0.442-0.293-0.707s0.105-0.52,0.293-0.707    l2.434-2.433c0.76-0.76,0.76-1.997,0-2.757l-2.78-2.78c-0.737-0.736-2.021-0.737-2.758,0c-0.044,0.044-0.093,0.084-0.145,0.12    c-0.115,0.08-2.906,2.076-2.448,6.198c0.061,0.549-0.334,1.043-0.883,1.104c-0.544,0.063-1.043-0.334-1.104-0.883    C1.51,6.114,4.713,3.505,5.291,3.078c1.497-1.436,4.051-1.412,5.524,0.06l2.78,2.78c1.54,1.54,1.54,4.045,0,5.585L11.87,13.23    l3.463,3.463c0.391,0.391,0.391,1.023,0,1.414C15.138,18.303,14.882,18.4,14.626,18.4z"/></g><g><path d="M9.76,23.266c-0.256,0-0.512-0.098-0.707-0.293c-2.457-2.457-4.296-4.855-5.467-7.128    c-0.253-0.491-0.06-1.094,0.431-1.347c0.493-0.253,1.094-0.059,1.347,0.431c1.076,2.089,2.792,4.32,5.103,6.63    c0.391,0.391,0.391,1.023,0,1.414C10.271,23.169,10.016,23.266,9.76,23.266z"/></g><g><path d="M21.992,29.982c-3.937,0-8.299-2.369-12.984-7.055c-0.391-0.391-0.391-1.023,0-1.414s1.023-0.391,1.414,0    c4.539,4.54,8.778,6.762,12.284,6.436c3.09-0.292,4.588-2.445,4.603-2.468c0.035-0.052,0.075-0.101,0.12-0.145    C27.797,24.969,28,24.478,28,23.958s-0.203-1.01-0.571-1.378l-2.78-2.781c-0.368-0.368-0.858-0.57-1.38-0.57l0,0    c-0.521,0-1.01,0.202-1.377,0.57l-2.435,2.433c-0.391,0.391-1.023,0.391-1.414,0l-4.169-4.169c-0.391-0.391-0.391-1.023,0-1.414    s1.023-0.391,1.414,0l3.462,3.462l1.727-1.726c0.745-0.746,1.736-1.157,2.792-1.157l0,0c1.056,0,2.048,0.411,2.794,1.156    l2.78,2.782C29.589,21.911,30,22.903,30,23.958c0,1.026-0.389,1.993-1.097,2.731c-0.364,0.492-2.327,2.903-6.009,3.251    C22.597,29.969,22.295,29.982,21.992,29.982z"/></g></g></svg>