<?xml version="1.0" ?><!DOCTYPE svg  PUBLIC '-//W3C//DTD SVG 1.1//EN'  'http://www.w3.org/Graphics/SVG/1.1/DTD/svg11.dtd'><svg enable-background="new 0 0 32 32" height="32px" id="Layer_1" version="1.1" viewBox="0 0 32 32" width="32px" xml:space="preserve" xmlns="http://www.w3.org/2000/svg" xmlns:xlink="http://www.w3.org/1999/xlink"><g><polyline fill="none" points="   649,137.999 675,137.999 675,155.999 661,155.999  " stroke="#FFFFFF" stroke-linecap="round" stroke-linejoin="round" stroke-miterlimit="10" stroke-width="2"/><polyline fill="none" points="   653,155.999 649,155.999 649,141.999  " stroke="#FFFFFF" stroke-linecap="round" stroke-linejoin="round" stroke-miterlimit="10" stroke-width="2"/><polyline fill="none" points="   661,156 653,162 653,156  " stroke="#FFFFFF" stroke-linecap="round" stroke-linejoin="round" stroke-miterlimit="10" stroke-width="2"/></g><path d="M29,3H3C2.448,3,2,3.448,2,4c0,0.552,0.448,1,1,1h25v16H15c-0.041,0-0.076,0.018-0.116,0.023  c-0.067,0.008-0.13,0.018-0.195,0.039c-0.068,0.022-0.127,0.053-0.187,0.089c-0.033,0.019-0.071,0.025-0.102,0.049L8,26v-4  c0,0,0,0,0,0s0,0,0,0c0-0.553-0.448-1-1-1H4V8c0-0.552-0.448-1-1-1S2,7.448,2,8V22c0,0.553,0.448,1,1,1h3v5  c0,0.379,0.214,0.725,0.553,0.895C6.694,28.965,6.848,29,7,29c0.212,0,0.423-0.067,0.6-0.2l7.733-5.8H29c0.553,0,1-0.447,1-1V4  C30,3.448,29.553,3,29,3z"/></svg>